<?xml version="1.0" encoding="iso-8859-1"?><!-- Generator: Adobe Illustrator 16.0.0, SVG Export Plug-In . SVG Version: 6.00 Build 0) --><!DOCTYPE svg PUBLIC "-//W3C//DTD SVG 1.1//EN" "http://www.w3.org/Graphics/SVG/1.1/DTD/svg11.dtd"><svg version="1.1" id="Layer_1" xmlns="http://www.w3.org/2000/svg" xmlns:xlink="http://www.w3.org/1999/xlink" x="0px" y="0px" width="28.429px" height="30.606px" viewBox="0 0 28.429 30.606" style="enable-background:new 0 0 28.429 30.606;" xml:space="preserve"><g><path d="M20.779,13.06c-0.101,0.026-0.182,0.07-0.278,0.101c0.349-0.433,0.668-0.889,0.923-1.387	c0.287-0.56,0.511-1.157,0.66-1.783c0.039-0.157,0.072-0.316,0.101-0.479c0.081-0.461,0.126-0.933,0.126-1.416	c0-0.027-0.002-0.055-0.002-0.083c-0.002-0.237-0.014-0.472-0.036-0.704c-0.075-0.771-0.26-1.511-0.536-2.203	c-0.021-0.052-0.04-0.104-0.062-0.156c-0.368-0.869-0.886-1.66-1.519-2.345c-0.041-0.044-0.084-0.089-0.125-0.132	c-0.121-0.124-0.243-0.246-0.371-0.361C18.221,0.8,16.311,0,14.215,0c-2.111,0-4.038,0.813-5.48,2.145	c-0.336,0.31-0.646,0.648-0.926,1.012C6.751,4.523,6.119,6.238,6.119,8.096c0,1.284,0.309,2.495,0.844,3.575	C4.496,10.386,1.371,11.925,0,11.266c1.494,2.284,1.206,2.812,3.716,5.318c1.678,1.678,3.243,1.782,4.3,1.489	c2.142,2.068,3.477,4.212,3.479,7.227c-0.221-0.178-0.485-0.316-0.795-0.316c-0.868,0-1.501,0.489-1.804,1.184	c-1.912-0.651-3.179-0.141-3.291,1.133c-0.909-0.335-2.062,0.711-2.062,1.62c0,0.896,0.708,1.624,1.596,1.658l14.07,0.028	c0,0,1.5-0.808,1.5-1.687c0-0.923-0.747-1.672-1.669-1.672c-0.126,0-0.249,0.018-0.366,0.048c0.007-0.066-0.162-1.899-2.624-0.763	c-0.19-0.886-0.442-1.55-1.919-1.55c-0.729,0-1.224,0.264-1.541,0.532c0.621-3.131,2.571-5.405,5.345-7.024	c0.028-0.018,0.044-0.041,0.065-0.063c0.859,0.688,2.358,1.219,4.582,0.297c3.275-1.359,3.594-2.88,5.846-4.422	C26.79,14.396,23.855,12.251,20.779,13.06z M21.444,6.388c0.011,0.042,0.021,0.084,0.03,0.128l-0.054-0.101L21.444,6.388z M20.786,4.776l0.047-0.053c0.061,0.12,0.118,0.241,0.174,0.364L20.93,5.086l-0.144,0.02V4.776z M19.615,3.364l0.002-0.362	c0.127,0.136,0.25,0.273,0.366,0.418l-0.146,0.217l-0.509-0.004l-0.032-0.107L19.615,3.364z M9.85,2.466V2.451h0.162l0.014-0.056	h0.267v0.116l-0.076,0.103H9.85V2.466z M10.109,2.826c0,0,0.162-0.026,0.176-0.026s0,0.162,0,0.162L9.919,2.984L9.85,2.9	L10.109,2.826z M7.94,4.125l0.013,0.134L7.645,4.634C7.736,4.46,7.836,4.291,7.94,4.125z M7.379,5.189v0.422l0.309,0.149v0.587	l0.296,0.506L8.225,6.89l0.03-0.173L7.971,6.277L7.915,5.854h0.167L8.153,6.29l0.41,0.6L8.457,7.084l0.262,0.398l0.648,0.16V7.537	l0.259,0.038L9.602,7.76l0.203,0.037l0.314,0.086l0.445,0.507l0.568,0.044l0.055,0.462l-0.389,0.271l-0.018,0.415l-0.057,0.253	l0.563,0.704l0.043,0.24c0,0,0.203,0.056,0.228,0.056c0.025,0,0.458,0.327,0.458,0.327v1.272l0.154,0.044l-0.105,0.585l0.259,0.347	l-0.047,0.58l0.343,0.603l0.439,0.385l0.442,0.008l0.043-0.143L13.22,14.57l0.018-0.137l0.059-0.166l0.013-0.17l-0.22-0.006	l-0.11-0.141l0.183-0.176l0.024-0.133l-0.204-0.059l0.013-0.122l0.289-0.044l0.442-0.212l0.148-0.272l0.462-0.593l-0.104-0.464	l0.143-0.247l0.426,0.014l0.286-0.227l0.094-0.896l0.318-0.403l0.055-0.259l-0.29-0.094l-0.191-0.313l-0.654-0.007l-0.519-0.197	l-0.024-0.37l-0.173-0.304l-0.47-0.006L12.96,8.143l-0.24-0.117l-0.014,0.13l-0.438,0.025l-0.161-0.224L11.65,7.864l-0.376,0.437	l-0.593-0.102L10.64,7.531l-0.434-0.073l0.173-0.328L10.33,6.941l-0.569,0.38L9.404,7.277L9.277,6.999l0.076-0.288l0.198-0.363	l0.454-0.23h0.876l-0.003,0.268l0.315,0.146l-0.025-0.456l0.228-0.229l0.458-0.301l0.03-0.212l0.458-0.476l0.486-0.268	l-0.044-0.035l0.329-0.312l0.121,0.032l0.055,0.069l0.125-0.138l0.03-0.015l-0.137-0.019l-0.138-0.046V3.993l0.072-0.06h0.162	l0.074,0.033l0.065,0.13l0.078-0.013V4.072l0.022,0.008l0.229-0.034l0.032-0.112l0.13,0.033v0.119L13.915,4.17l0.018,0.132	l0.412,0.127c0,0,0.001,0.003,0.001,0.005l0.097-0.008l0.005-0.179L14.12,4.098l-0.018-0.085l0.271-0.093l0.012-0.26l-0.283-0.173	l-0.019-0.438L13.695,3.24h-0.143l0.037-0.334l-0.53-0.124l-0.219,0.166v0.505l-0.394,0.123l-0.158,0.33l-0.17,0.027V3.513	l-0.371-0.051l-0.185-0.12l-0.074-0.273l0.661-0.388l0.325-0.1L12.507,2.8l0.182-0.011l0.014-0.108l0.188-0.028l0.004-0.037	l-0.081-0.034l-0.019-0.115l0.232-0.02l0.14-0.146l0.008-0.011h0.002l0.043-0.043l0.487-0.062l0.215,0.182l-0.564,0.302l0.72,0.171	l0.093-0.241h0.315l0.11-0.21l-0.222-0.055V2.068L13.677,1.76l-0.481,0.054l-0.273,0.144l0.02,0.346L12.657,2.26l-0.044-0.191	l0.272-0.248l-0.494-0.024l-0.143,0.043l-0.061,0.167l0.185,0.03l-0.037,0.186L12.022,2.24l-0.051,0.123l-0.456,0.014	c0,0-0.013-0.26-0.031-0.26s0.357-0.006,0.357-0.006l0.272-0.267l-0.148-0.074l-0.197,0.191L11.44,1.943l-0.197-0.271h-0.42	l-0.438,0.327h0.402l0.036,0.118l-0.104,0.099l0.445,0.012l0.067,0.161l-0.5-0.02l-0.025-0.122l-0.314-0.069l-0.166-0.092	L9.851,2.09c1.227-0.895,2.734-1.423,4.364-1.423c1.879,0,3.597,0.702,4.905,1.855l-0.089,0.158l-0.343,0.133l-0.143,0.158	l0.033,0.183l0.176,0.024l0.106,0.267l0.305-0.123l0.051,0.356h-0.092l-0.251-0.036l-0.277,0.047l-0.269,0.378l-0.385,0.061	l-0.055,0.329l0.162,0.038l-0.046,0.212l-0.383-0.076l-0.35,0.076l-0.074,0.194l0.061,0.408l0.205,0.097l0.345-0.002l0.232-0.021	l0.071-0.186l0.364-0.473l0.237,0.049l0.237-0.212l0.044,0.166l0.58,0.392l-0.07,0.094L19.243,5.2l0.1,0.143l0.162,0.035	l0.188-0.079l-0.004-0.227l0.083-0.041L19.706,4.96l-0.387-0.217l-0.103-0.286h0.322l0.103,0.102l0.277,0.238l0.011,0.289	l0.288,0.306l0.106-0.419l0.198-0.107l0.038,0.342l0.194,0.213l0.387-0.006c0.075,0.192,0.142,0.389,0.201,0.589L21.301,6.04	h-0.592l-0.361-0.269l-0.38,0.037V6.04h-0.121l-0.129-0.093L19.06,5.781V5.355L18.226,5.42l-0.259,0.139h-0.33l-0.163-0.017	l-0.401,0.224v0.42L16.25,6.777l0.068,0.254h0.167l-0.044,0.241l-0.117,0.043l-0.006,0.63l0.71,0.809h0.31l0.018-0.05h0.557	l0.159-0.147h0.316l0.173,0.173l0.468,0.048l-0.061,0.624l0.521,0.921l-0.274,0.525l0.019,0.246l0.217,0.216v0.595l0.283,0.381	v0.495h0.245c-1.364,1.673-3.439,2.746-5.763,2.746c-4.097,0-7.43-3.333-7.43-7.431C6.785,7.064,6.997,6.082,7.379,5.189z M10.535,3.679l0.195-0.093l0.175,0.042l-0.061,0.236l-0.189,0.06L10.535,3.679z M11.567,4.234v0.154h-0.443l-0.168-0.048	l0.042-0.106l0.213-0.087h0.292v0.087H11.567z M11.772,4.447v0.149L11.66,4.668l-0.138,0.024c0,0,0-0.222,0-0.245H11.772z M11.646,4.389V4.211l0.151,0.139L11.646,4.389z M11.716,4.743v0.146l-0.107,0.106h-0.235l0.037-0.163l0.112-0.01l0.022-0.056	L11.716,4.743z M11.128,4.447h0.245l-0.315,0.441l-0.129-0.071l0.027-0.185L11.128,4.447z M12.133,4.692v0.146h-0.236l-0.065-0.095	V4.609h0.019L12.133,4.692z M11.915,4.495l0.066-0.071l0.114,0.071L12.005,4.57L11.915,4.495z M12.129,26.074	c0,0-0.008-0.017-0.015-0.032l0.091-0.094C12.159,26.022,12.129,26.074,12.129,26.074z M24.809,15.049	c-0.275,0.116-0.667,0.267-1.137,0.446c-0.24,0.086-0.492,0.182-0.767,0.279c-0.271,0.095-0.552,0.197-0.849,0.301	c-0.293,0.104-0.594,0.212-0.896,0.32c-0.303,0.104-0.617,0.221-0.929,0.342c-0.293,0.108-0.598,0.256-0.896,0.375	c-0.295,0.135-0.802,0.31-1.087,0.434c-0.347,0.145-0.567,0.223-0.788,0.34c-2.462,1.438-4.554,2.983-5.218,5.673	c-0.121-2.529-1.65-3.982-3.478-5.792c0,0,0.002-0.003,0.007-0.003c-0.245-0.231-0.505-0.48-0.767-0.745	c-0.219-0.225-0.448-0.449-0.671-0.688c-0.229-0.221-0.455-0.473-0.685-0.685c-0.242-0.233-0.487-0.464-0.726-0.671	c-0.242-0.217-0.479-0.432-0.708-0.637c-0.233-0.213-0.461-0.414-0.671-0.606c-0.212-0.194-0.414-0.377-0.598-0.548	c-0.368-0.347-0.676-0.637-0.884-0.847c-0.208-0.212-0.327-0.333-0.327-0.333s0.622,0.285,1.486,0.81	c0.433,0.265,0.933,0.577,1.448,0.944c0.264,0.178,0.526,0.372,0.797,0.584c0.134,0.104,0.266,0.21,0.4,0.316l0.379,0.326	c0.067,0.061,0.121,0.1,0.197,0.176l0.184,0.18c0.124,0.121,0.247,0.24,0.359,0.361c0.228,0.247,0.45,0.49,0.652,0.732	c0.199,0.246,0.396,0.48,0.567,0.717c0.034,0.052,0.068,0.098,0.105,0.145c0.31-0.5,0.431-1.573,0.06-2.729	c1.353,1.016,3.025,1.624,4.843,1.624c1.215,0,2.365-0.274,3.4-0.757c-0.393,0.701-0.545,1.385-0.476,1.814	c0.052-0.033,0.102-0.061,0.153-0.096c0.247-0.151,0.52-0.295,0.799-0.445c0.277-0.148,0.576-0.287,0.881-0.428	c0.15-0.07,0.313-0.134,0.468-0.197l0.236-0.097c0.106-0.041,0.167-0.056,0.251-0.087l0.477-0.158	c0.167-0.047,0.329-0.093,0.496-0.139c0.322-0.09,0.643-0.173,0.955-0.235c0.617-0.142,1.197-0.245,1.697-0.321	c1.002-0.152,1.687-0.182,1.687-0.182S25.083,14.932,24.809,15.049z"/><polygon points="17.918,3.602 17.934,3.723 17.754,3.759 17.729,4.016 17.945,4.016 18.232,3.988 18.38,3.812 18.224,3.75	18.138,3.65 18.007,3.441 17.945,3.145 17.702,3.194 17.633,3.299 17.633,3.416 17.75,3.497	"/><polygon points="17.711,3.7 17.723,3.541 17.581,3.478 17.381,3.525 17.232,3.763 17.232,3.916 17.405,3.916	"/><path d="M13.599,4.381l-0.045,0.114h-0.213v0.11h0.051c0,0,0.004,0.022,0.008,0.053l0.13-0.01l0.082-0.051l0.021-0.103l0.104-0.009	l0.042-0.087l-0.097-0.019H13.599z"/><polygon points="13.049,4.58 13.041,4.689 13.196,4.676 13.212,4.567 13.119,4.495	"/></g><g></g><g></g><g></g><g></g><g></g><g></g><g></g><g></g><g></g><g></g><g></g><g></g><g></g><g></g><g></g></svg>