<?xml version="1.0"?><svg width="744.09448819" height="1052.3622047" xmlns="http://www.w3.org/2000/svg" xmlns:xlink="http://www.w3.org/1999/xlink">
 <metadata id="metadata7">image/svg+xmlHand palmhand palm move pan tool action icon lemon</metadata>
 <defs>
  <symbol id="svg_4">
   <g id="svg_2">
    <path d="m263.41571,235.145874c-66.240005,0 -119.999954,53.76001 -119.999954,120c0,134.755524 135.933151,170.08728 228.562454,303.308044c87.574219,-132.403381 228.5625,-172.854584 228.5625,-303.308044c0,-66.23999 -53.759888,-120 -120,-120c-48.047913,0 -89.401611,28.370422 -108.5625,69.1875c-19.160797,-40.817078 -60.514496,-69.1875 -108.5625,-69.1875z" id="svg_3" stroke-miterlimit="4" stroke-width="18.700001" stroke="#000000" fill="#e60000"/>
   </g>
  </symbol>
 </defs>
 <g>
  <title>Layer 1</title>
  <path fill="#000000" fill-rule="evenodd" stroke="#000000" stroke-width="23.238" stroke-linecap="round" stroke-linejoin="round" stroke-miterlimit="4" stroke-dashoffset="0" id="path2398" d="m214.402206,660.206116c-31.726166,-46.706665 -56.254318,-73.917603 -89.897545,-99.730591c-15.423584,-11.833923 -17.274193,-16.322327 -11.504044,-26.276611c20.215919,-34.875366 61.467339,-30.478821 91.607887,-0.795044c11.98999,11.80835 24.509262,38.118713 42.762833,38.118713c13.670074,0 4.703049,-30.052979 -27.291809,-91.467529c-45.539841,-87.414307 -51.706085,-146.333221 -13.15564,-125.701599c6.977554,3.734161 28.470444,28.258911 47.762054,54.499237l46.504364,87.709778l-7.85733,-109.702454c2.576813,-50.292786 6.734833,-74.530792 14.932007,-87.04129c13.234528,-20.198425 19.257202,-21.339294 34.13089,-6.465607c17.277496,17.277588 20.072754,42.318359 24.110687,104.095459c2.074341,31.736267 8.053192,63.309692 13.524323,94.925262c24.060059,-47.487244 6.847626,-124.44162 38.517578,-169.704376c27.47171,-29.487488 37.121002,6.079742 43.01828,95.471039c2.31601,35.105011 -2.036163,89.001373 0.80484,91.833221c2.841003,2.831818 11.659027,-19.316589 27.233398,-46.612396c12.640991,-22.154724 21.66922,-44.529144 28.40802,-52.345154c7.260742,-8.421356 47.539063,-35.051483 36.359558,29.930115c-4.770081,27.726379 -33.010986,90.939575 -48.977051,141.745544c-6.428558,47.142883 -25.036804,122.291016 -41.823181,146.338379c-16.786407,24.047302 -17.778748,19.34845 -34.990417,25.529846c-18.705078,6.717651 -84.299561,-3.011719 -107.026733,-5.593994c-60.253143,-14.699402 -75.348404,-38.288574 -107.152969,-88.759949z"/>
  <path fill="#cdc5b8" fill-rule="evenodd" stroke-width="13.1383" stroke-linecap="round" stroke-linejoin="round" stroke-miterlimit="4" stroke-dashoffset="0" id="path3177" d="m214.596878,660.147095c-31.726151,-46.706665 -56.254303,-73.917603 -89.897537,-99.730591c-15.423584,-11.833923 -17.274193,-16.322327 -11.504044,-26.276611c20.215912,-34.875366 61.467346,-30.478821 91.60788,-0.794983c11.990005,11.808289 24.509277,38.118652 42.762848,38.118652c13.670059,0 4.703033,-30.052979 -27.291809,-91.467529c-45.539841,-87.414307 -51.7061,-146.333221 -13.15564,-125.701599c6.977539,3.734161 28.470444,28.258911 47.762054,54.499237l46.504349,87.709778l-7.85733,-109.702454c2.576843,-50.292786 6.734833,-74.530792 14.932007,-87.04129c13.234528,-20.198425 19.257202,-21.339294 34.13089,-6.465607c17.277527,17.277588 20.072784,42.318359 24.110687,104.095459c2.074341,31.736267 8.053192,63.309692 13.524323,94.925262c24.060089,-47.487244 6.847626,-124.44162 38.517578,-169.704376c27.47171,-29.487488 37.121002,6.079742 43.018311,95.471039c2.315979,35.105011 -2.036224,89.001373 0.804779,91.833221c2.841003,2.831818 11.658997,-19.316589 27.233398,-46.612396c12.641022,-22.154724 21.66922,-44.529144 28.40802,-52.345154c7.260803,-8.421356 47.539063,-35.051483 36.359558,29.930115c-4.770081,27.726379 -33.010986,90.939575 -48.977081,141.745544c-6.428497,47.142883 -25.036774,122.291016 -41.82309,146.338379c-16.786407,24.047302 -17.778809,19.34845 -34.990387,25.529846c-18.705139,6.717651 -84.299622,-3.011719 -107.026794,-5.593994c-60.253143,-14.699402 -75.348404,-38.288513 -107.152969,-88.759949z"/>
  <use id="svg_6" xlink:href="#svg_4" transform="matrix(0.5200372686777469,0,0,0.5316077914118811,-82.31021016204758,-21.833918747339855) " y="786.234947" x="511.766813"/>
 </g>
</svg>