<?xml version="1.0" encoding="utf-8"?><!-- Generator: Adobe Illustrator 16.0.0, SVG Export Plug-In . SVG Version: 6.00 Build 0) --><!DOCTYPE svg PUBLIC "-//W3C//DTD SVG 1.1//EN" "http://www.w3.org/Graphics/SVG/1.1/DTD/svg11.dtd"><svg version="1.1" id="Layer_11" xmlns="http://www.w3.org/2000/svg" xmlns:xlink="http://www.w3.org/1999/xlink" x="0px" y="0px" width="100px" height="100px" viewBox="0 0 100 100" enable-background="new 0 0 100 100" xml:space="preserve"><path d="M21.696,44.388c-2.174,2.655-6.088,3.047-8.744,0.875l-3.148-2.576c-2.654-2.173-3.045-6.087-0.873-8.745l16.422-20.067	c2.172-2.658,6.086-3.048,8.742-0.875l3.148,2.575c2.656,2.173,3.047,6.088,0.873,8.744L21.696,44.388z M90.327,30.26L70.722,13.29	c-2.594-2.247-6.52-1.963-8.764,0.631l-2.664,3.077c-2.244,2.595-1.963,6.518,0.633,8.764l19.605,16.97	c2.594,2.246,6.52,1.963,8.766-0.631l2.66-3.075C93.204,36.43,92.923,32.506,90.327,30.26z M80.646,58.108	c0.346,3.45-0.674,6.827-2.871,9.511l-7.863,9.605c-2.197,2.684-5.307,4.352-8.754,4.695c-1.082,0.108-2.156,0.083-3.205-0.072	c-1.98-0.291-3.852-1.068-5.514-2.235l-3.303,4.035c-2.875,3.513-7.455,5.284-11.949,4.621c-2.314-0.341-4.5-1.308-6.318-2.796	l-9.605-7.864c-2.684-2.197-4.352-5.306-4.697-8.756c-0.344-3.449,0.678-6.828,2.875-9.509l4.4-5.38	c0.313-0.383,0.766-0.626,1.258-0.675c0.49-0.05,0.984,0.1,1.365,0.412l21.773,17.822c0.135,0.063,0.27,0.138,0.391,0.238	l5.379,4.401c1.914,1.567,4.32,2.295,6.777,2.049c2.459-0.247,4.676-1.435,6.242-3.347l7.863-9.605	c3.232-3.949,2.646-9.789-1.301-13.021l-5.586-4.333c-2.613,2.83-5.738,4.388-9.311,4.627c-6.893,0.461-13.537-4.19-16.582-6.699	c-4.377,6.284-9.539,6.419-9.775,6.422c-0.1,0.001-0.197-0.006-0.293-0.021c-0.215-0.032-0.424-0.1-0.615-0.203	c-1.918-1.037-3.045-2.319-3.445-3.924c-0.537-2.15,0.264-4.679,2.602-8.195c5.809-8.75,12.646-8.694,16.732-8.661	c0.936,0.007,1.746,0.015,2.361-0.075c2.705-0.392,3.875-3.178,3.887-3.208c0.379-0.956,1.463-1.422,2.418-1.05	c0.957,0.379,1.428,1.462,1.049,2.42c-0.076,0.195-1.953,4.821-6.818,5.526c-0.896,0.13-1.883,0.122-2.928,0.114	c-3.967-0.033-8.904-0.073-13.598,6.995c-2.039,3.07-2.262,4.54-2.088,5.23c0.07,0.29,0.271,0.719,1.121,1.264	c1.168-0.222,4.5-1.291,7.346-6.398c0.283-0.507,0.787-0.853,1.361-0.936s1.158,0.105,1.572,0.512	c0.078,0.077,7.934,7.671,15.453,7.164c2.992-0.204,5.492-1.65,7.646-4.421c0.504-0.645,1.346-0.862,2.078-0.609	c0.381,0.011,0.764,0.132,1.088,0.384l6.648,5.156C78.634,51.549,80.302,54.658,80.646,58.108z M49.472,77.351L25.544,57.768	l-3.221,3.937c-1.566,1.911-2.291,4.319-2.047,6.777c0.246,2.46,1.436,4.677,3.348,6.242l9.605,7.864	c1.297,1.062,2.854,1.751,4.5,1.994c3.256,0.479,6.439-0.752,8.521-3.293L49.472,77.351z"/></svg>